<svg xmlns="http://www.w3.org/2000/svg" version="1.1" xmlns:xlink="http://www.w3.org/1999/xlink" xmlns:svgjs="http://svgjs.dev/svgjs" width="1500" height="1500" viewBox="0 0 1500 1500"><rect width="1500" height="1500" fill="#ffffff"></rect><g transform="matrix(0.6666666666666666,0,0,0.6666666666666666,249.39393939393938,531.4648947850799)"><svg viewBox="0 0 396 173" data-background-color="#ffffff" preserveAspectRatio="xMidYMid meet" height="655" width="1500" xmlns="http://www.w3.org/2000/svg" xmlns:xlink="http://www.w3.org/1999/xlink"><g id="tight-bounds" transform="matrix(1,0,0,1,0.2400000000000091,0.07993863094931442)"><svg viewBox="0 0 395.52 172.84012273810137" height="172.84012273810137" width="395.52"><g><svg viewBox="0 0 600.1201148433092 262.24927767779394" height="172.84012273810137" width="395.52"><g transform="matrix(1,0,0,1,204.60011484330917,81.03883332365749)"><svg viewBox="0 0 395.52000000000004 100.17161103047897" height="100.17161103047897" width="395.52000000000004"><g id="textblocktransform"><svg viewBox="0 0 395.52000000000004 100.17161103047897" height="100.17161103047897" width="395.52000000000004" id="textblock"><g><svg viewBox="0 0 395.52000000000004 100.17161103047897" height="100.17161103047897" width="395.52000000000004"><g transform="matrix(1,0,0,1,0,0)"><svg width="395.52000000000004" viewBox="1.7 -34.3 137.79000000000002 34.9" height="100.17161103047897" data-palette-color="#ffffff"><path d="M1.7 0L6.55-34.3 27.7-34.3 27.1-30.3 10.35-30.3 8.85-19.55 23.4-19.55 22.85-15.55 8.3-15.55 6.7-4 23.75-4 23.15 0 1.7 0ZM36.95 0.6Q33.15 0.6 31.02-1.78 28.9-4.15 28.9-8.95L28.9-8.95Q28.9-16.25 31.25-21.58 33.6-26.9 39.35-26.9L39.35-26.9Q46.85-26.9 46.85-17.45L46.85-17.45 46.85-16.55 42.6-16.55 42.6-17.4Q42.6-23.25 39.35-23.25L39.35-23.25Q36.85-23.25 35.47-20.6 34.1-17.95 33.62-14.75 33.15-11.55 33.15-9.3L33.15-9.3Q33.15-6.3 34.1-4.67 35.05-3.05 36.85-3.05L36.85-3.05Q38.85-3.05 40.25-4.95 41.65-6.85 41.95-9.6L41.95-9.6 46.05-9.6Q45.55-5.3 43.15-2.35 40.75 0.6 36.95 0.6L36.95 0.6ZM57.8 0.6Q49.49 0.6 49.49-8.75L49.49-8.75Q49.49-13 50.47-17.1 51.45-21.2 53.95-24.05 56.45-26.9 60.64-26.9L60.64-26.9Q68.94-26.9 68.94-17.45L68.94-17.45Q68.94-13.2 67.97-9.13 67-5.05 64.5-2.23 61.99 0.6 57.8 0.6L57.8 0.6ZM57.8-3.05Q60.55-3.05 62.09-5.65 63.64-8.25 64.17-11.53 64.69-14.8 64.69-17.4L64.69-17.4Q64.69-23.25 60.64-23.25L60.64-23.25Q57.89-23.25 56.37-20.73 54.84-18.2 54.3-15.03 53.74-11.85 53.74-9.3L53.74-9.3Q53.74-6.1 54.72-4.58 55.7-3.05 57.8-3.05L57.8-3.05ZM72.34 0L77.19-34.3 98.34-34.3 97.74-30.3 80.99-30.3 79.49-19.55 94.04-19.55 93.49-15.55 78.94-15.55 77.34-4 94.39-4 93.79 0 72.34 0ZM96.64 0L106.19-13.5 100.59-26.3 105.34-26.3 108.94-17.45 108.99-17.45 114.89-26.3 119.79-26.3 110.64-13.45 116.49 0 111.74 0 107.89-9.5 107.84-9.5 101.44 0 96.64 0ZM128.74 0.6Q124.59 0.6 122.41-1.78 120.24-4.15 120.24-8.95L120.24-8.95Q120.24-16.1 122.76-21.5 125.29-26.9 131.39-26.9L131.39-26.9Q139.49-26.9 139.49-17.45L139.49-17.45Q139.49-14.5 139.09-11.95L139.09-11.95 124.64-11.95Q124.49-10.4 124.49-9.3L124.49-9.3Q124.49-3.05 128.74-3.05L128.74-3.05Q130.89-3.05 132.41-4.75 133.94-6.45 134.29-8.9L134.29-8.9 138.44-8.9Q137.79-4.8 135.26-2.1 132.74 0.6 128.74 0.6L128.74 0.6ZM125.14-15.6L135.19-15.6Q135.24-16.25 135.24-17.4L135.24-17.4Q135.24-23.25 131.39-23.25L131.39-23.25Q128.89-23.25 127.36-21.08 125.84-18.9 125.14-15.6L125.14-15.6Z" opacity="1" transform="matrix(1,0,0,1,0,0)" fill="#ffffff" class="wordmark-text-0" data-fill-palette-color="primary" id="text-0"></path></svg></g></svg></g></svg></g></svg></g><g><svg viewBox="0 0 180.95200159767782 262.24927767779394" height="262.24927767779394" width="180.95200159767782"><g><svg version="1.1" xmlns="http://www.w3.org/2000/svg" xmlns:xlink="http://www.w3.org/1999/xlink" x="0" y="0" viewBox="0 0 69 100" enable-background="new 0 0 69.501 100" xml:space="preserve" width="180.95200159767782" height="262.24927767779394" class="icon-icon-0" data-fill-palette-color="accent" id="icon-0"><polygon points="69.501,81.875 48.751,50 60.495,52.608 45.751,30 54.751,32 34.751,0 34.75,0 14.75,32 23.75,30 9.006,52.608 	20.75,50 0,81.875 30.75,74.906 30.75,100 39.75,100 39.75,75.133 " fill="#ffffff" data-fill-palette-color="accent"></polygon></svg></g></svg></g></svg></g><defs></defs></svg><rect width="395.52" height="172.84012273810137" fill="none" stroke="none" visibility="hidden"></rect></g></svg></g></svg>